<svg aria-hidden="true" style="position: absolute; width: 0; height: 0; overflow: hidden;" version="1.1" xmlns="http://www.w3.org/2000/svg" xmlns:xlink="http://www.w3.org/1999/xlink">
<defs>
<symbol id="icon-location_on" viewBox="0 0 24 24">
<path d="M12 11.484q1.031 0 1.758-0.727t0.727-1.758-0.727-1.758-1.758-0.727-1.758 0.727-0.727 1.758 0.727 1.758 1.758 0.727zM12 2.016q2.906 0 4.945 2.039t2.039 4.945q0 1.453-0.727 3.328t-1.758 3.516-2.039 3.070-1.711 2.273l-0.75 0.797q-0.281-0.328-0.75-0.867t-1.688-2.156-2.133-3.141-1.664-3.445-0.75-3.375q0-2.906 2.039-4.945t4.945-2.039z"></path>
</symbol>
<symbol id="icon-chat_bubble_outline" viewBox="0 0 24 24">
<path d="M20.016 15.984v-12h-16.031v14.016l2.016-2.016h14.016zM20.016 2.016q0.797 0 1.383 0.586t0.586 1.383v12q0 0.797-0.586 1.406t-1.383 0.609h-14.016l-3.984 3.984v-18q0-0.797 0.586-1.383t1.383-0.586h16.031z"></path>
</symbol>
<symbol id="icon-vpn_key" viewBox="0 0 24 24">
<path d="M6.984 14.016q0.797 0 1.406-0.609t0.609-1.406-0.609-1.406-1.406-0.609-1.383 0.609-0.586 1.406 0.586 1.406 1.383 0.609zM12.656 9.984h10.359v4.031h-2.016v3.984h-3.984v-3.984h-4.359q-0.609 1.641-2.273 2.813t-3.398 1.172q-2.484 0-4.242-1.758t-1.758-4.242 1.758-4.242 4.242-1.758q1.734 0 3.398 1.172t2.273 2.813z"></path>
</symbol>
<symbol id="icon-navigate_next" viewBox="0 0 24 24">
<path d="M9.984 6l6 6-6 6-1.406-1.406 4.594-4.594-4.594-4.594z"></path>
</symbol>
<symbol id="icon-map" viewBox="0 0 24 24">
<path d="M15 18.984v-11.859l-6-2.109v11.859zM20.484 3q0.516 0 0.516 0.516v15.094q0 0.375-0.375 0.469l-5.625 1.922-6-2.109-5.344 2.063-0.141 0.047q-0.516 0-0.516-0.516v-15.094q0-0.375 0.375-0.469l5.625-1.922 6 2.109 5.344-2.063z"></path>
</symbol>
<symbol id="icon-bookmark_outline" viewBox="0 0 24 24">
<path d="M17.016 18v-12.984h-10.031v12.984l5.016-2.203zM17.016 3q0.797 0 1.383 0.609t0.586 1.406v15.984l-6.984-3-6.984 3v-15.984q0-0.797 0.586-1.406t1.383-0.609h10.031z"></path>
</symbol>
<symbol id="icon-search" viewBox="0 0 24 24">
<path d="M9.516 14.016q1.875 0 3.188-1.313t1.313-3.188-1.313-3.188-3.188-1.313-3.188 1.313-1.313 3.188 1.313 3.188 3.188 1.313zM15.516 14.016l4.969 4.969-1.5 1.5-4.969-4.969v-0.797l-0.281-0.281q-1.781 1.547-4.219 1.547-2.719 0-4.617-1.875t-1.898-4.594 1.898-4.617 4.617-1.898 4.594 1.898 1.875 4.617q0 0.984-0.469 2.227t-1.078 1.992l0.281 0.281h0.797z"></path>
</symbol>
<symbol id="icon-flight_takeoff" viewBox="0 0 24 24">
<path d="M22.078 9.656q0.141 0.609-0.164 1.125t-0.914 0.703q-5.813 1.547-9.656 2.578l-5.297 1.406-1.594 0.469-2.625-4.5 1.453-0.375 1.969 1.5 4.969-1.313-4.125-7.172 1.922-0.516 6.891 6.422 5.344-1.406q0.609-0.188 1.148 0.141t0.68 0.938zM2.484 18.984h19.031v2.016h-19.031v-2.016z"></path>
</symbol>
<symbol id="icon-house_siding" viewBox="0 0 24 24">
<path d="M18.984 12h3l-9.984-9-9.984 9h3v8.016h1.969v-2.016h10.031v2.016h1.969v-8.016zM7.219 9.984h9.563l0.234 0.188v1.828h-10.031v-1.828zM14.578 8.016h-5.156l2.578-2.344zM6.984 15.984v-1.969h10.031v1.969h-10.031z"></path>
</symbol>
<symbol id="icon-star_outline" viewBox="0 0 24 24">
<path d="M21.984 9.234l-7.172-0.609-2.813-6.609-2.813 6.609-7.172 0.609 5.438 4.734-1.641 7.031 6.188-3.75 6.188 3.75-1.641-7.031zM12 15.422l-3.75 2.25 0.984-4.266-3.328-2.906 4.406-0.375 1.688-4.031 1.688 4.031 4.406 0.375-3.328 2.906 0.984 4.266z"></path>
</symbol>
</defs>
</svg>
